<svg width="618" height="450" viewBox="0 0 618 450" fill="none" xmlns="http://www.w3.org/2000/svg">
<g filter="url(#filter0_d_0_1)">
<rect x="51.1155" y="393.331" width="47.1692" height="47.1692" fill="#88C0D0" stroke="#7390AA"/>
<path d="M81.0896 425.968V424.216H76.6736V409.216H73.5296L69.0896 413.368L70.2656 414.64L74.4896 410.704H74.6576V424.216H69.8576V425.968H81.0896Z" fill="#2E3440"/>
</g>
<g filter="url(#filter1_d_0_1)">
<rect x="100.839" y="340.5" width="47.1692" height="47.1692" fill="#88C0D0" stroke="#7390AA"/>
<path d="M130.813 373.137V371.385H126.397V356.385H123.253L118.813 360.537L119.989 361.809L124.213 357.873H124.381V371.385H119.581V373.137H130.813Z" fill="#2E3440"/>
</g>
<g filter="url(#filter2_d_0_1)">
<rect x="52.5" y="340.5" width="47.1692" height="47.1692" fill="#88C0D0" stroke="#7390AA"/>
<path d="M82.4741 373.137V371.385H78.0581V356.385H74.9141L70.4741 360.537L71.6501 361.809L75.8741 357.873H76.0421V371.385H71.2421V373.137H82.4741Z" fill="#2E3440"/>
</g>
<g filter="url(#filter3_d_0_1)">
<rect x="4.5" y="340.5" width="47.1692" height="47.1692" stroke="#7390AA"/>
<path d="M28.4021 373.425C32.4821 373.425 34.2581 370.233 34.2581 364.761C34.2581 359.289 32.4821 356.097 28.4021 356.097C24.3221 356.097 22.5461 359.289 22.5461 364.761C22.5461 370.233 24.3221 373.425 28.4021 373.425ZM28.4021 371.673C25.7141 371.673 24.6341 369.489 24.6341 366.129V363.393C24.6341 360.033 25.7141 357.849 28.4021 357.849C31.0901 357.849 32.1701 360.033 32.1701 363.393V366.129C32.1701 369.489 31.0901 371.673 28.4021 371.673ZM28.4021 366.177C29.5061 366.177 29.8901 365.673 29.8901 365.025V364.497C29.8901 363.849 29.5061 363.345 28.4021 363.345C27.2981 363.345 26.9141 363.849 26.9141 364.497V365.025C26.9141 365.673 27.2981 366.177 28.4021 366.177Z" fill="#88C0D0"/>
</g>
<g filter="url(#filter4_d_0_1)">
<rect x="361.115" y="53.3308" width="47.1692" height="47.1692" fill="#88C0D0" stroke="#7390AA"/>
<path d="M391.09 85.9678V84.2158H386.674V69.2158H383.53L379.09 73.3678L380.266 74.6398L384.49 70.7038H384.658V84.2158H379.858V85.9678H391.09Z" fill="#2E3440"/>
</g>
<g filter="url(#filter5_d_0_1)">
<rect x="410.839" y="0.5" width="47.1692" height="47.1692" fill="#88C0D0" stroke="#7390AA"/>
<path d="M440.813 33.1371V31.3851H436.397V16.3851H433.253L428.813 20.5371L429.989 21.8091L434.213 17.8731H434.381V31.3851H429.581V33.1371H440.813Z" fill="#2E3440"/>
</g>
<g filter="url(#filter6_d_0_1)">
<rect x="314.5" y="0.5" width="47.1692" height="47.1692" fill="#88C0D0" stroke="#7390AA"/>
<path d="M344.474 33.1371V31.3851H340.058V16.3851H336.914L332.474 20.5371L333.65 21.8091L337.874 17.8731H338.042V31.3851H333.242V33.1371H344.474Z" fill="#2E3440"/>
</g>
<g filter="url(#filter7_d_0_1)">
<rect x="362.669" y="0.5" width="47.1692" height="47.1692" stroke="#7390AA"/>
<path d="M386.572 33.4251C390.652 33.4251 392.428 30.2331 392.428 24.7611C392.428 19.2891 390.652 16.0971 386.572 16.0971C382.492 16.0971 380.716 19.2891 380.716 24.7611C380.716 30.2331 382.492 33.4251 386.572 33.4251ZM386.572 31.6731C383.884 31.6731 382.804 29.4891 382.804 26.1291V23.3931C382.804 20.0331 383.884 17.8491 386.572 17.8491C389.26 17.8491 390.34 20.0331 390.34 23.3931V26.1291C390.34 29.4891 389.26 31.6731 386.572 31.6731ZM386.572 26.1771C387.676 26.1771 388.06 25.6731 388.06 25.0251V24.4971C388.06 23.8491 387.676 23.3451 386.572 23.3451C385.468 23.3451 385.084 23.8491 385.084 24.4971V25.0251C385.084 25.6731 385.468 26.1771 386.572 26.1771Z" fill="#88C0D0"/>
</g>
<g filter="url(#filter8_d_0_1)">
<rect x="100.839" y="0.5" width="47.1692" height="47.1692" fill="#88C0D0" stroke="#7390AA"/>
<path d="M130.813 33.1371V31.3851H126.397V16.3851H123.253L118.813 20.5371L119.989 21.8091L124.213 17.8731H124.381V31.3851H119.581V33.1371H130.813Z" fill="#2E3440"/>
</g>
<g filter="url(#filter9_d_0_1)">
<rect x="51.5" y="0.5" width="47.1692" height="47.1692" fill="#88C0D0" stroke="#7390AA"/>
<path d="M81.4741 33.1371V31.3851H77.0581V16.3851H73.9141L69.4741 20.5371L70.6501 21.8091L74.8741 17.8731H75.0421V31.3851H70.2421V33.1371H81.4741Z" fill="#2E3440"/>
</g>
<g filter="url(#filter10_d_0_1)">
<rect x="4.5" y="0.5" width="47.1692" height="47.1692" fill="#88C0D0" stroke="#7390AA"/>
<path d="M34.4741 33.1371V31.3851H30.0581V16.3851H26.9141L22.4741 20.5371L23.6501 21.8091L27.8741 17.8731H28.0421V31.3851H23.2421V33.1371H34.4741Z" fill="#2E3440"/>
</g>
<g filter="url(#filter11_d_0_1)">
<rect x="52.6694" y="53.5" width="47.1692" height="47.1692" stroke="#7390AA"/>
<path d="M76.5716 86.4251C80.6516 86.4251 82.4276 83.2331 82.4276 77.7611C82.4276 72.2891 80.6516 69.0971 76.5716 69.0971C72.4916 69.0971 70.7156 72.2891 70.7156 77.7611C70.7156 83.2331 72.4916 86.4251 76.5716 86.4251ZM76.5716 84.6731C73.8836 84.6731 72.8036 82.4891 72.8036 79.1291V76.3931C72.8036 73.0331 73.8836 70.8491 76.5716 70.8491C79.2596 70.8491 80.3396 73.0331 80.3396 76.3931V79.1291C80.3396 82.4891 79.2596 84.6731 76.5716 84.6731ZM76.5716 79.1771C77.6756 79.1771 78.0596 78.6731 78.0596 78.0251V77.4971C78.0596 76.8491 77.6756 76.3451 76.5716 76.3451C75.4676 76.3451 75.0836 76.8491 75.0836 77.4971V78.0251C75.0836 78.6731 75.4676 79.1771 76.5716 79.1771Z" fill="#88C0D0"/>
</g>
<g filter="url(#filter12_d_0_1)">
<rect x="468.992" y="340.5" width="47.1692" height="47.1692" stroke="#7390AA"/>
<path d="M492.894 373.425C496.974 373.425 498.75 370.233 498.75 364.761C498.75 359.289 496.974 356.097 492.894 356.097C488.814 356.097 487.038 359.289 487.038 364.761C487.038 370.233 488.814 373.425 492.894 373.425ZM492.894 371.673C490.206 371.673 489.126 369.489 489.126 366.129V363.393C489.126 360.033 490.206 357.849 492.894 357.849C495.582 357.849 496.662 360.033 496.662 363.393V366.129C496.662 369.489 495.582 371.673 492.894 371.673ZM492.894 366.177C493.998 366.177 494.382 365.673 494.382 365.025V364.497C494.382 363.849 493.998 363.345 492.894 363.345C491.79 363.345 491.406 363.849 491.406 364.497V365.025C491.406 365.673 491.79 366.177 492.894 366.177Z" fill="#88C0D0"/>
</g>
<g filter="url(#filter13_d_0_1)">
<rect x="517.162" y="340.5" width="47.1692" height="47.1692" stroke="#7390AA"/>
<path d="M541.064 373.425C545.144 373.425 546.92 370.233 546.92 364.761C546.92 359.289 545.144 356.097 541.064 356.097C536.984 356.097 535.208 359.289 535.208 364.761C535.208 370.233 536.984 373.425 541.064 373.425ZM541.064 371.673C538.376 371.673 537.296 369.489 537.296 366.129V363.393C537.296 360.033 538.376 357.849 541.064 357.849C543.752 357.849 544.832 360.033 544.832 363.393V366.129C544.832 369.489 543.752 371.673 541.064 371.673ZM541.064 366.177C542.168 366.177 542.552 365.673 542.552 365.025V364.497C542.552 363.849 542.168 363.345 541.064 363.345C539.96 363.345 539.576 363.849 539.576 364.497V365.025C539.576 365.673 539.96 366.177 541.064 366.177Z" fill="#88C0D0"/>
</g>
<g filter="url(#filter14_d_0_1)">
<rect x="517.162" y="393.5" width="47.1692" height="47.1692" stroke="#7390AA"/>
<path d="M541.064 426.425C545.144 426.425 546.92 423.233 546.92 417.761C546.92 412.289 545.144 409.097 541.064 409.097C536.984 409.097 535.208 412.289 535.208 417.761C535.208 423.233 536.984 426.425 541.064 426.425ZM541.064 424.673C538.376 424.673 537.296 422.489 537.296 419.129V416.393C537.296 413.033 538.376 410.849 541.064 410.849C543.752 410.849 544.832 413.033 544.832 416.393V419.129C544.832 422.489 543.752 424.673 541.064 424.673ZM541.064 419.177C542.168 419.177 542.552 418.673 542.552 418.025V417.497C542.552 416.849 542.168 416.345 541.064 416.345C539.96 416.345 539.576 416.849 539.576 417.497V418.025C539.576 418.673 539.96 419.177 541.064 419.177Z" fill="#88C0D0"/>
</g>
<g filter="url(#filter15_d_0_1)">
<rect x="565.5" y="340.5" width="47.1692" height="47.1692" stroke="#7390AA"/>
<path d="M589.402 373.425C593.482 373.425 595.258 370.233 595.258 364.761C595.258 359.289 593.482 356.097 589.402 356.097C585.322 356.097 583.546 359.289 583.546 364.761C583.546 370.233 585.322 373.425 589.402 373.425ZM589.402 371.673C586.714 371.673 585.634 369.489 585.634 366.129V363.393C585.634 360.033 586.714 357.849 589.402 357.849C592.09 357.849 593.17 360.033 593.17 363.393V366.129C593.17 369.489 592.09 371.673 589.402 371.673ZM589.402 366.177C590.506 366.177 590.89 365.673 590.89 365.025V364.497C590.89 363.849 590.506 363.345 589.402 363.345C588.298 363.345 587.914 363.849 587.914 364.497V365.025C587.914 365.673 588.298 366.177 589.402 366.177Z" fill="#88C0D0"/>
</g>
<g filter="url(#filter16_d_0_1)">
<rect x="204.115" y="393.331" width="47.1692" height="47.1692" fill="#88C0D0" stroke="#7390AA"/>
<path d="M234.09 425.968V424.216H229.674V409.216H226.53L222.09 413.368L223.266 414.64L227.49 410.704H227.658V424.216H222.858V425.968H234.09Z" fill="#2E3440"/>
</g>
<g filter="url(#filter17_d_0_1)">
<rect x="204.5" y="340.5" width="47.1692" height="47.1692" fill="#88C0D0" stroke="#7390AA"/>
<path d="M234.474 373.137V371.385H230.058V356.385H226.914L222.474 360.537L223.65 361.809L227.874 357.873H228.042V371.385H223.242V373.137H234.474Z" fill="#2E3440"/>
</g>
<g filter="url(#filter18_d_0_1)">
<rect x="157.5" y="340.5" width="47.1692" height="47.1692" stroke="#7390AA"/>
<path d="M181.402 373.425C185.482 373.425 187.258 370.233 187.258 364.761C187.258 359.289 185.482 356.097 181.402 356.097C177.322 356.097 175.546 359.289 175.546 364.761C175.546 370.233 177.322 373.425 181.402 373.425ZM181.402 371.673C178.714 371.673 177.634 369.489 177.634 366.129V363.393C177.634 360.033 178.714 357.849 181.402 357.849C184.09 357.849 185.17 360.033 185.17 363.393V366.129C185.17 369.489 184.09 371.673 181.402 371.673ZM181.402 366.177C182.506 366.177 182.89 365.673 182.89 365.025V364.497C182.89 363.849 182.506 363.345 181.402 363.345C180.298 363.345 179.914 363.849 179.914 364.497V365.025C179.914 365.673 180.298 366.177 181.402 366.177Z" fill="#88C0D0"/>
</g>
<g filter="url(#filter19_d_0_1)">
<rect x="252.5" y="340.5" width="47.1692" height="47.1692" stroke="#7390AA"/>
<path d="M276.402 373.425C280.482 373.425 282.258 370.233 282.258 364.761C282.258 359.289 280.482 356.097 276.402 356.097C272.322 356.097 270.546 359.289 270.546 364.761C270.546 370.233 272.322 373.425 276.402 373.425ZM276.402 371.673C273.714 371.673 272.634 369.489 272.634 366.129V363.393C272.634 360.033 273.714 357.849 276.402 357.849C279.09 357.849 280.17 360.033 280.17 363.393V366.129C280.17 369.489 279.09 371.673 276.402 371.673ZM276.402 366.177C277.506 366.177 277.89 365.673 277.89 365.025V364.497C277.89 363.849 277.506 363.345 276.402 363.345C275.298 363.345 274.914 363.849 274.914 364.497V365.025C274.914 365.673 275.298 366.177 276.402 366.177Z" fill="#88C0D0"/>
</g>
<g filter="url(#filter20_d_0_1)">
<rect x="363.115" y="393.331" width="47.1692" height="47.1692" fill="#88C0D0" stroke="#7390AA"/>
<path d="M393.09 425.968V424.216H388.674V409.216H385.53L381.09 413.368L382.266 414.64L386.49 410.704H386.658V424.216H381.858V425.968H393.09Z" fill="#2E3440"/>
</g>
<g filter="url(#filter21_d_0_1)">
<rect x="410.5" y="340.5" width="47.1692" height="47.1692" fill="#88C0D0" stroke="#7390AA"/>
<path d="M440.474 373.137V371.385H436.058V356.385H432.914L428.474 360.537L429.65 361.809L433.874 357.873H434.042V371.385H429.242V373.137H440.474Z" fill="#2E3440"/>
</g>
<g filter="url(#filter22_d_0_1)">
<rect x="315.5" y="340.5" width="47.1692" height="47.1692" stroke="#7390AA"/>
<path d="M339.402 373.425C343.482 373.425 345.258 370.233 345.258 364.761C345.258 359.289 343.482 356.097 339.402 356.097C335.322 356.097 333.546 359.289 333.546 364.761C333.546 370.233 335.322 373.425 339.402 373.425ZM339.402 371.673C336.714 371.673 335.634 369.489 335.634 366.129V363.393C335.634 360.033 336.714 357.849 339.402 357.849C342.09 357.849 343.17 360.033 343.17 363.393V366.129C343.17 369.489 342.09 371.673 339.402 371.673ZM339.402 366.177C340.506 366.177 340.89 365.673 340.89 365.025V364.497C340.89 363.849 340.506 363.345 339.402 363.345C338.298 363.345 337.914 363.849 337.914 364.497V365.025C337.914 365.673 338.298 366.177 339.402 366.177Z" fill="#88C0D0"/>
</g>
<g filter="url(#filter23_d_0_1)">
<rect x="363.5" y="340.5" width="47.1692" height="47.1692" stroke="#7390AA"/>
<path d="M387.402 373.425C391.482 373.425 393.258 370.233 393.258 364.761C393.258 359.289 391.482 356.097 387.402 356.097C383.322 356.097 381.546 359.289 381.546 364.761C381.546 370.233 383.322 373.425 387.402 373.425ZM387.402 371.673C384.714 371.673 383.634 369.489 383.634 366.129V363.393C383.634 360.033 384.714 357.849 387.402 357.849C390.09 357.849 391.17 360.033 391.17 363.393V366.129C391.17 369.489 390.09 371.673 387.402 371.673ZM387.402 366.177C388.506 366.177 388.89 365.673 388.89 365.025V364.497C388.89 363.849 388.506 363.345 387.402 363.345C386.298 363.345 385.914 363.849 385.914 364.497V365.025C385.914 365.673 386.298 366.177 387.402 366.177Z" fill="#88C0D0"/>
</g>
<g filter="url(#filter24_d_0_1)">
<rect x="515.115" y="53.3308" width="47.1692" height="47.1692" fill="#88C0D0" stroke="#7390AA"/>
<path d="M545.089 85.9678V84.2158H540.673V69.2158H537.529L533.089 73.3678L534.265 74.6398L538.489 70.7038H538.657V84.2158H533.857V85.9678H545.089Z" fill="#2E3440"/>
</g>
<g filter="url(#filter25_d_0_1)">
<rect x="468.5" y="0.5" width="47.1692" height="47.1692" fill="#88C0D0" stroke="#7390AA"/>
<path d="M498.474 33.1371V31.3851H494.058V16.3851H490.914L486.474 20.5371L487.65 21.8091L491.874 17.8731H492.042V31.3851H487.242V33.1371H498.474Z" fill="#2E3440"/>
</g>
<g filter="url(#filter26_d_0_1)">
<rect x="516.669" y="0.5" width="47.1692" height="47.1692" stroke="#7390AA"/>
<path d="M540.572 33.4251C544.652 33.4251 546.428 30.2331 546.428 24.7611C546.428 19.2891 544.652 16.0971 540.572 16.0971C536.492 16.0971 534.716 19.2891 534.716 24.7611C534.716 30.2331 536.492 33.4251 540.572 33.4251ZM540.572 31.6731C537.884 31.6731 536.804 29.4891 536.804 26.1291V23.3931C536.804 20.0331 537.884 17.8491 540.572 17.8491C543.26 17.8491 544.34 20.0331 544.34 23.3931V26.1291C544.34 29.4891 543.26 31.6731 540.572 31.6731ZM540.572 26.1771C541.676 26.1771 542.06 25.6731 542.06 25.0251V24.4971C542.06 23.8491 541.676 23.3451 540.572 23.3451C539.468 23.3451 539.084 23.8491 539.084 24.4971V25.0251C539.084 25.6731 539.468 26.1771 540.572 26.1771Z" fill="#88C0D0"/>
</g>
<g filter="url(#filter27_d_0_1)">
<rect x="564.5" y="0.5" width="47.1692" height="47.1692" stroke="#7390AA"/>
<path d="M588.402 33.4251C592.482 33.4251 594.258 30.2331 594.258 24.7611C594.258 19.2891 592.482 16.0971 588.402 16.0971C584.322 16.0971 582.546 19.2891 582.546 24.7611C582.546 30.2331 584.322 33.4251 588.402 33.4251ZM588.402 31.6731C585.714 31.6731 584.634 29.4891 584.634 26.1291V23.3931C584.634 20.0331 585.714 17.8491 588.402 17.8491C591.09 17.8491 592.17 20.0331 592.17 23.3931V26.1291C592.17 29.4891 591.09 31.6731 588.402 31.6731ZM588.402 26.1771C589.506 26.1771 589.89 25.6731 589.89 25.0251V24.4971C589.89 23.8491 589.506 23.3451 588.402 23.3451C587.298 23.3451 586.914 23.8491 586.914 24.4971V25.0251C586.914 25.6731 587.298 26.1771 588.402 26.1771Z" fill="#88C0D0"/>
</g>
<g filter="url(#filter28_d_0_1)">
<rect x="207.5" y="0.5" width="47.1692" height="47.1692" fill="#88C0D0" stroke="#7390AA"/>
<path d="M237.474 33.1371V31.3851H233.058V16.3851H229.914L225.474 20.5371L226.65 21.8091L230.874 17.8731H231.042V31.3851H226.242V33.1371H237.474Z" fill="#2E3440"/>
</g>
<g filter="url(#filter29_d_0_1)">
<rect x="158.5" y="0.5" width="47.1692" height="47.1692" fill="#88C0D0" stroke="#7390AA"/>
<path d="M188.474 33.1371V31.3851H184.058V16.3851H180.914L176.474 20.5371L177.65 21.8091L181.874 17.8731H182.042V31.3851H177.242V33.1371H188.474Z" fill="#2E3440"/>
</g>
<g filter="url(#filter30_d_0_1)">
<rect x="256.5" y="0.5" width="47.1692" height="47.1692" stroke="#7390AA"/>
<path d="M280.402 33.4251C284.482 33.4251 286.258 30.2331 286.258 24.7611C286.258 19.2891 284.482 16.0971 280.402 16.0971C276.322 16.0971 274.546 19.2891 274.546 24.7611C274.546 30.2331 276.322 33.4251 280.402 33.4251ZM280.402 31.6731C277.714 31.6731 276.634 29.4891 276.634 26.1291V23.3931C276.634 20.0331 277.714 17.8491 280.402 17.8491C283.09 17.8491 284.17 20.0331 284.17 23.3931V26.1291C284.17 29.4891 283.09 31.6731 280.402 31.6731ZM280.402 26.1771C281.506 26.1771 281.89 25.6731 281.89 25.0251V24.4971C281.89 23.8491 281.506 23.3451 280.402 23.3451C279.298 23.3451 278.914 23.8491 278.914 24.4971V25.0251C278.914 25.6731 279.298 26.1771 280.402 26.1771Z" fill="#88C0D0"/>
</g>
<g filter="url(#filter31_d_0_1)">
<rect x="207.5" y="53.5" width="47.1692" height="47.1692" stroke="#7390AA"/>
<path d="M231.402 86.4251C235.482 86.4251 237.258 83.2331 237.258 77.7611C237.258 72.2891 235.482 69.0971 231.402 69.0971C227.322 69.0971 225.546 72.2891 225.546 77.7611C225.546 83.2331 227.322 86.4251 231.402 86.4251ZM231.402 84.6731C228.714 84.6731 227.634 82.4891 227.634 79.1291V76.3931C227.634 73.0331 228.714 70.8491 231.402 70.8491C234.09 70.8491 235.17 73.0331 235.17 76.3931V79.1291C235.17 82.4891 234.09 84.6731 231.402 84.6731ZM231.402 79.1771C232.506 79.1771 232.89 78.6731 232.89 78.0251V77.4971C232.89 76.8491 232.506 76.3451 231.402 76.3451C230.298 76.3451 229.914 76.8491 229.914 77.4971V78.0251C229.914 78.6731 230.298 79.1771 231.402 79.1771Z" fill="#88C0D0"/>
</g>
<g filter="url(#filter32_d_0_1)">
<path d="M180.15 216.628H185.826L188.158 204.44H185.21L180.15 216.628ZM190.71 216.628H196.386L198.718 204.44H195.77L190.71 216.628ZM216.169 237.528C223.649 237.528 226.905 231.676 226.905 221.644C226.905 211.612 223.649 205.76 216.169 205.76C208.689 205.76 205.433 211.612 205.433 221.644C205.433 231.676 208.689 237.528 216.169 237.528ZM216.169 234.316C211.241 234.316 209.261 230.312 209.261 224.152V219.136C209.261 212.976 211.241 208.972 216.169 208.972C221.097 208.972 223.077 212.976 223.077 219.136V224.152C223.077 230.312 221.097 234.316 216.169 234.316ZM216.169 224.24C218.193 224.24 218.897 223.316 218.897 222.128V221.16C218.897 219.972 218.193 219.048 216.169 219.048C214.145 219.048 213.441 219.972 213.441 221.16V222.128C213.441 223.316 214.145 224.24 216.169 224.24ZM242.552 237.528C250.032 237.528 253.288 231.676 253.288 221.644C253.288 211.612 250.032 205.76 242.552 205.76C235.072 205.76 231.816 211.612 231.816 221.644C231.816 231.676 235.072 237.528 242.552 237.528ZM242.552 234.316C237.624 234.316 235.644 230.312 235.644 224.152V219.136C235.644 212.976 237.624 208.972 242.552 208.972C247.48 208.972 249.46 212.976 249.46 219.136V224.152C249.46 230.312 247.48 234.316 242.552 234.316ZM242.552 224.24C244.576 224.24 245.28 223.316 245.28 222.128V221.16C245.28 219.972 244.576 219.048 242.552 219.048C240.528 219.048 239.824 219.972 239.824 221.16V222.128C239.824 223.316 240.528 224.24 242.552 224.24ZM268.934 237.528C276.414 237.528 279.67 231.676 279.67 221.644C279.67 211.612 276.414 205.76 268.934 205.76C261.454 205.76 258.198 211.612 258.198 221.644C258.198 231.676 261.454 237.528 268.934 237.528ZM268.934 234.316C264.006 234.316 262.026 230.312 262.026 224.152V219.136C262.026 212.976 264.006 208.972 268.934 208.972C273.862 208.972 275.842 212.976 275.842 219.136V224.152C275.842 230.312 273.862 234.316 268.934 234.316ZM268.934 224.24C270.958 224.24 271.662 223.316 271.662 222.128V221.16C271.662 219.972 270.958 219.048 268.934 219.048C266.91 219.048 266.206 219.972 266.206 221.16V222.128C266.206 223.316 266.91 224.24 268.934 224.24ZM306.449 237V233.788H298.353V206.288H292.589L284.449 213.9L286.605 216.232L294.349 209.016H294.657V233.788H285.857V237H306.449ZM332.832 237V233.788H324.736V206.288H318.972L310.832 213.9L312.988 216.232L320.732 209.016H321.04V233.788H312.24V237H332.832ZM359.215 237V233.788H351.119V206.288H345.355L337.215 213.9L339.371 216.232L347.115 209.016H347.423V233.788H338.623V237H359.215ZM385.598 237V233.788H377.502V206.288H371.738L363.598 213.9L365.754 216.232L373.498 209.016H373.806V233.788H365.006V237H385.598ZM400.848 237.528C408.328 237.528 411.584 231.676 411.584 221.644C411.584 211.612 408.328 205.76 400.848 205.76C393.368 205.76 390.112 211.612 390.112 221.644C390.112 231.676 393.368 237.528 400.848 237.528ZM400.848 234.316C395.92 234.316 393.94 230.312 393.94 224.152V219.136C393.94 212.976 395.92 208.972 400.848 208.972C405.776 208.972 407.756 212.976 407.756 219.136V224.152C407.756 230.312 405.776 234.316 400.848 234.316ZM400.848 224.24C402.872 224.24 403.576 223.316 403.576 222.128V221.16C403.576 219.972 402.872 219.048 400.848 219.048C398.824 219.048 398.12 219.972 398.12 221.16V222.128C398.12 223.316 398.824 224.24 400.848 224.24ZM418.827 216.628H421.775L426.835 204.44H421.159L418.827 216.628ZM429.387 216.628H432.335L437.395 204.44H431.719L429.387 216.628Z" fill="#88C0D0"/>
</g>
<path d="M418 242L533 332" stroke="#88C0D0" stroke-width="3" stroke-linecap="round"/>
<path d="M296 197L500 62" stroke="#88C0D0" stroke-width="3" stroke-linecap="round"/>
<path d="M270 197L346 66" stroke="#88C0D0" stroke-width="3" stroke-linecap="round"/>
<path d="M242 197L231 113" stroke="#88C0D0" stroke-width="3" stroke-linecap="round"/>
<path d="M215 197L109 66" stroke="#88C0D0" stroke-width="3" stroke-linecap="round"/>
<path d="M377 242L387 332" stroke="#88C0D0" stroke-width="3" stroke-linecap="round"/>
<path d="M350 242L239 332" stroke="#88C0D0" stroke-width="3" stroke-linecap="round"/>
<path d="M317 242L80 332" stroke="#88C0D0" stroke-width="3" stroke-linecap="round"/>
<defs>
<filter id="filter0_d_0_1" x="46.6155" y="392.831" width="56.1692" height="56.1692" filterUnits="userSpaceOnUse" color-interpolation-filters="sRGB">
<feFlood flood-opacity="0" result="BackgroundImageFix"/>
<feColorMatrix in="SourceAlpha" type="matrix" values="0 0 0 0 0 0 0 0 0 0 0 0 0 0 0 0 0 0 127 0" result="hardAlpha"/>
<feOffset dy="4"/>
<feGaussianBlur stdDeviation="2"/>
<feComposite in2="hardAlpha" operator="out"/>
<feColorMatrix type="matrix" values="0 0 0 0 0 0 0 0 0 0 0 0 0 0 0 0 0 0 0.25 0"/>
<feBlend mode="normal" in2="BackgroundImageFix" result="effect1_dropShadow_0_1"/>
<feBlend mode="normal" in="SourceGraphic" in2="effect1_dropShadow_0_1" result="shape"/>
</filter>
<filter id="filter1_d_0_1" x="96.3386" y="340" width="56.1692" height="56.1692" filterUnits="userSpaceOnUse" color-interpolation-filters="sRGB">
<feFlood flood-opacity="0" result="BackgroundImageFix"/>
<feColorMatrix in="SourceAlpha" type="matrix" values="0 0 0 0 0 0 0 0 0 0 0 0 0 0 0 0 0 0 127 0" result="hardAlpha"/>
<feOffset dy="4"/>
<feGaussianBlur stdDeviation="2"/>
<feComposite in2="hardAlpha" operator="out"/>
<feColorMatrix type="matrix" values="0 0 0 0 0 0 0 0 0 0 0 0 0 0 0 0 0 0 0.25 0"/>
<feBlend mode="normal" in2="BackgroundImageFix" result="effect1_dropShadow_0_1"/>
<feBlend mode="normal" in="SourceGraphic" in2="effect1_dropShadow_0_1" result="shape"/>
</filter>
<filter id="filter2_d_0_1" x="48" y="340" width="56.1692" height="56.1692" filterUnits="userSpaceOnUse" color-interpolation-filters="sRGB">
<feFlood flood-opacity="0" result="BackgroundImageFix"/>
<feColorMatrix in="SourceAlpha" type="matrix" values="0 0 0 0 0 0 0 0 0 0 0 0 0 0 0 0 0 0 127 0" result="hardAlpha"/>
<feOffset dy="4"/>
<feGaussianBlur stdDeviation="2"/>
<feComposite in2="hardAlpha" operator="out"/>
<feColorMatrix type="matrix" values="0 0 0 0 0 0 0 0 0 0 0 0 0 0 0 0 0 0 0.25 0"/>
<feBlend mode="normal" in2="BackgroundImageFix" result="effect1_dropShadow_0_1"/>
<feBlend mode="normal" in="SourceGraphic" in2="effect1_dropShadow_0_1" result="shape"/>
</filter>
<filter id="filter3_d_0_1" x="0" y="340" width="56.1692" height="56.1692" filterUnits="userSpaceOnUse" color-interpolation-filters="sRGB">
<feFlood flood-opacity="0" result="BackgroundImageFix"/>
<feColorMatrix in="SourceAlpha" type="matrix" values="0 0 0 0 0 0 0 0 0 0 0 0 0 0 0 0 0 0 127 0" result="hardAlpha"/>
<feOffset dy="4"/>
<feGaussianBlur stdDeviation="2"/>
<feComposite in2="hardAlpha" operator="out"/>
<feColorMatrix type="matrix" values="0 0 0 0 0 0 0 0 0 0 0 0 0 0 0 0 0 0 0.25 0"/>
<feBlend mode="normal" in2="BackgroundImageFix" result="effect1_dropShadow_0_1"/>
<feBlend mode="normal" in="SourceGraphic" in2="effect1_dropShadow_0_1" result="shape"/>
</filter>
<filter id="filter4_d_0_1" x="356.615" y="52.8308" width="56.1692" height="56.1692" filterUnits="userSpaceOnUse" color-interpolation-filters="sRGB">
<feFlood flood-opacity="0" result="BackgroundImageFix"/>
<feColorMatrix in="SourceAlpha" type="matrix" values="0 0 0 0 0 0 0 0 0 0 0 0 0 0 0 0 0 0 127 0" result="hardAlpha"/>
<feOffset dy="4"/>
<feGaussianBlur stdDeviation="2"/>
<feComposite in2="hardAlpha" operator="out"/>
<feColorMatrix type="matrix" values="0 0 0 0 0 0 0 0 0 0 0 0 0 0 0 0 0 0 0.25 0"/>
<feBlend mode="normal" in2="BackgroundImageFix" result="effect1_dropShadow_0_1"/>
<feBlend mode="normal" in="SourceGraphic" in2="effect1_dropShadow_0_1" result="shape"/>
</filter>
<filter id="filter5_d_0_1" x="406.339" y="0" width="56.1692" height="56.1692" filterUnits="userSpaceOnUse" color-interpolation-filters="sRGB">
<feFlood flood-opacity="0" result="BackgroundImageFix"/>
<feColorMatrix in="SourceAlpha" type="matrix" values="0 0 0 0 0 0 0 0 0 0 0 0 0 0 0 0 0 0 127 0" result="hardAlpha"/>
<feOffset dy="4"/>
<feGaussianBlur stdDeviation="2"/>
<feComposite in2="hardAlpha" operator="out"/>
<feColorMatrix type="matrix" values="0 0 0 0 0 0 0 0 0 0 0 0 0 0 0 0 0 0 0.25 0"/>
<feBlend mode="normal" in2="BackgroundImageFix" result="effect1_dropShadow_0_1"/>
<feBlend mode="normal" in="SourceGraphic" in2="effect1_dropShadow_0_1" result="shape"/>
</filter>
<filter id="filter6_d_0_1" x="310" y="0" width="56.1692" height="56.1692" filterUnits="userSpaceOnUse" color-interpolation-filters="sRGB">
<feFlood flood-opacity="0" result="BackgroundImageFix"/>
<feColorMatrix in="SourceAlpha" type="matrix" values="0 0 0 0 0 0 0 0 0 0 0 0 0 0 0 0 0 0 127 0" result="hardAlpha"/>
<feOffset dy="4"/>
<feGaussianBlur stdDeviation="2"/>
<feComposite in2="hardAlpha" operator="out"/>
<feColorMatrix type="matrix" values="0 0 0 0 0 0 0 0 0 0 0 0 0 0 0 0 0 0 0.25 0"/>
<feBlend mode="normal" in2="BackgroundImageFix" result="effect1_dropShadow_0_1"/>
<feBlend mode="normal" in="SourceGraphic" in2="effect1_dropShadow_0_1" result="shape"/>
</filter>
<filter id="filter7_d_0_1" x="358.169" y="0" width="56.1692" height="56.1692" filterUnits="userSpaceOnUse" color-interpolation-filters="sRGB">
<feFlood flood-opacity="0" result="BackgroundImageFix"/>
<feColorMatrix in="SourceAlpha" type="matrix" values="0 0 0 0 0 0 0 0 0 0 0 0 0 0 0 0 0 0 127 0" result="hardAlpha"/>
<feOffset dy="4"/>
<feGaussianBlur stdDeviation="2"/>
<feComposite in2="hardAlpha" operator="out"/>
<feColorMatrix type="matrix" values="0 0 0 0 0 0 0 0 0 0 0 0 0 0 0 0 0 0 0.25 0"/>
<feBlend mode="normal" in2="BackgroundImageFix" result="effect1_dropShadow_0_1"/>
<feBlend mode="normal" in="SourceGraphic" in2="effect1_dropShadow_0_1" result="shape"/>
</filter>
<filter id="filter8_d_0_1" x="96.3386" y="0" width="56.1692" height="56.1692" filterUnits="userSpaceOnUse" color-interpolation-filters="sRGB">
<feFlood flood-opacity="0" result="BackgroundImageFix"/>
<feColorMatrix in="SourceAlpha" type="matrix" values="0 0 0 0 0 0 0 0 0 0 0 0 0 0 0 0 0 0 127 0" result="hardAlpha"/>
<feOffset dy="4"/>
<feGaussianBlur stdDeviation="2"/>
<feComposite in2="hardAlpha" operator="out"/>
<feColorMatrix type="matrix" values="0 0 0 0 0 0 0 0 0 0 0 0 0 0 0 0 0 0 0.25 0"/>
<feBlend mode="normal" in2="BackgroundImageFix" result="effect1_dropShadow_0_1"/>
<feBlend mode="normal" in="SourceGraphic" in2="effect1_dropShadow_0_1" result="shape"/>
</filter>
<filter id="filter9_d_0_1" x="47" y="0" width="56.1692" height="56.1692" filterUnits="userSpaceOnUse" color-interpolation-filters="sRGB">
<feFlood flood-opacity="0" result="BackgroundImageFix"/>
<feColorMatrix in="SourceAlpha" type="matrix" values="0 0 0 0 0 0 0 0 0 0 0 0 0 0 0 0 0 0 127 0" result="hardAlpha"/>
<feOffset dy="4"/>
<feGaussianBlur stdDeviation="2"/>
<feComposite in2="hardAlpha" operator="out"/>
<feColorMatrix type="matrix" values="0 0 0 0 0 0 0 0 0 0 0 0 0 0 0 0 0 0 0.25 0"/>
<feBlend mode="normal" in2="BackgroundImageFix" result="effect1_dropShadow_0_1"/>
<feBlend mode="normal" in="SourceGraphic" in2="effect1_dropShadow_0_1" result="shape"/>
</filter>
<filter id="filter10_d_0_1" x="0" y="0" width="56.1692" height="56.1692" filterUnits="userSpaceOnUse" color-interpolation-filters="sRGB">
<feFlood flood-opacity="0" result="BackgroundImageFix"/>
<feColorMatrix in="SourceAlpha" type="matrix" values="0 0 0 0 0 0 0 0 0 0 0 0 0 0 0 0 0 0 127 0" result="hardAlpha"/>
<feOffset dy="4"/>
<feGaussianBlur stdDeviation="2"/>
<feComposite in2="hardAlpha" operator="out"/>
<feColorMatrix type="matrix" values="0 0 0 0 0 0 0 0 0 0 0 0 0 0 0 0 0 0 0.25 0"/>
<feBlend mode="normal" in2="BackgroundImageFix" result="effect1_dropShadow_0_1"/>
<feBlend mode="normal" in="SourceGraphic" in2="effect1_dropShadow_0_1" result="shape"/>
</filter>
<filter id="filter11_d_0_1" x="48.1694" y="53" width="56.1692" height="56.1692" filterUnits="userSpaceOnUse" color-interpolation-filters="sRGB">
<feFlood flood-opacity="0" result="BackgroundImageFix"/>
<feColorMatrix in="SourceAlpha" type="matrix" values="0 0 0 0 0 0 0 0 0 0 0 0 0 0 0 0 0 0 127 0" result="hardAlpha"/>
<feOffset dy="4"/>
<feGaussianBlur stdDeviation="2"/>
<feComposite in2="hardAlpha" operator="out"/>
<feColorMatrix type="matrix" values="0 0 0 0 0 0 0 0 0 0 0 0 0 0 0 0 0 0 0.25 0"/>
<feBlend mode="normal" in2="BackgroundImageFix" result="effect1_dropShadow_0_1"/>
<feBlend mode="normal" in="SourceGraphic" in2="effect1_dropShadow_0_1" result="shape"/>
</filter>
<filter id="filter12_d_0_1" x="464.492" y="340" width="56.1692" height="56.1692" filterUnits="userSpaceOnUse" color-interpolation-filters="sRGB">
<feFlood flood-opacity="0" result="BackgroundImageFix"/>
<feColorMatrix in="SourceAlpha" type="matrix" values="0 0 0 0 0 0 0 0 0 0 0 0 0 0 0 0 0 0 127 0" result="hardAlpha"/>
<feOffset dy="4"/>
<feGaussianBlur stdDeviation="2"/>
<feComposite in2="hardAlpha" operator="out"/>
<feColorMatrix type="matrix" values="0 0 0 0 0 0 0 0 0 0 0 0 0 0 0 0 0 0 0.25 0"/>
<feBlend mode="normal" in2="BackgroundImageFix" result="effect1_dropShadow_0_1"/>
<feBlend mode="normal" in="SourceGraphic" in2="effect1_dropShadow_0_1" result="shape"/>
</filter>
<filter id="filter13_d_0_1" x="512.662" y="340" width="56.1692" height="56.1692" filterUnits="userSpaceOnUse" color-interpolation-filters="sRGB">
<feFlood flood-opacity="0" result="BackgroundImageFix"/>
<feColorMatrix in="SourceAlpha" type="matrix" values="0 0 0 0 0 0 0 0 0 0 0 0 0 0 0 0 0 0 127 0" result="hardAlpha"/>
<feOffset dy="4"/>
<feGaussianBlur stdDeviation="2"/>
<feComposite in2="hardAlpha" operator="out"/>
<feColorMatrix type="matrix" values="0 0 0 0 0 0 0 0 0 0 0 0 0 0 0 0 0 0 0.25 0"/>
<feBlend mode="normal" in2="BackgroundImageFix" result="effect1_dropShadow_0_1"/>
<feBlend mode="normal" in="SourceGraphic" in2="effect1_dropShadow_0_1" result="shape"/>
</filter>
<filter id="filter14_d_0_1" x="512.662" y="393" width="56.1692" height="56.1692" filterUnits="userSpaceOnUse" color-interpolation-filters="sRGB">
<feFlood flood-opacity="0" result="BackgroundImageFix"/>
<feColorMatrix in="SourceAlpha" type="matrix" values="0 0 0 0 0 0 0 0 0 0 0 0 0 0 0 0 0 0 127 0" result="hardAlpha"/>
<feOffset dy="4"/>
<feGaussianBlur stdDeviation="2"/>
<feComposite in2="hardAlpha" operator="out"/>
<feColorMatrix type="matrix" values="0 0 0 0 0 0 0 0 0 0 0 0 0 0 0 0 0 0 0.25 0"/>
<feBlend mode="normal" in2="BackgroundImageFix" result="effect1_dropShadow_0_1"/>
<feBlend mode="normal" in="SourceGraphic" in2="effect1_dropShadow_0_1" result="shape"/>
</filter>
<filter id="filter15_d_0_1" x="561" y="340" width="56.1692" height="56.1692" filterUnits="userSpaceOnUse" color-interpolation-filters="sRGB">
<feFlood flood-opacity="0" result="BackgroundImageFix"/>
<feColorMatrix in="SourceAlpha" type="matrix" values="0 0 0 0 0 0 0 0 0 0 0 0 0 0 0 0 0 0 127 0" result="hardAlpha"/>
<feOffset dy="4"/>
<feGaussianBlur stdDeviation="2"/>
<feComposite in2="hardAlpha" operator="out"/>
<feColorMatrix type="matrix" values="0 0 0 0 0 0 0 0 0 0 0 0 0 0 0 0 0 0 0.25 0"/>
<feBlend mode="normal" in2="BackgroundImageFix" result="effect1_dropShadow_0_1"/>
<feBlend mode="normal" in="SourceGraphic" in2="effect1_dropShadow_0_1" result="shape"/>
</filter>
<filter id="filter16_d_0_1" x="199.615" y="392.831" width="56.1692" height="56.1692" filterUnits="userSpaceOnUse" color-interpolation-filters="sRGB">
<feFlood flood-opacity="0" result="BackgroundImageFix"/>
<feColorMatrix in="SourceAlpha" type="matrix" values="0 0 0 0 0 0 0 0 0 0 0 0 0 0 0 0 0 0 127 0" result="hardAlpha"/>
<feOffset dy="4"/>
<feGaussianBlur stdDeviation="2"/>
<feComposite in2="hardAlpha" operator="out"/>
<feColorMatrix type="matrix" values="0 0 0 0 0 0 0 0 0 0 0 0 0 0 0 0 0 0 0.25 0"/>
<feBlend mode="normal" in2="BackgroundImageFix" result="effect1_dropShadow_0_1"/>
<feBlend mode="normal" in="SourceGraphic" in2="effect1_dropShadow_0_1" result="shape"/>
</filter>
<filter id="filter17_d_0_1" x="200" y="340" width="56.1692" height="56.1692" filterUnits="userSpaceOnUse" color-interpolation-filters="sRGB">
<feFlood flood-opacity="0" result="BackgroundImageFix"/>
<feColorMatrix in="SourceAlpha" type="matrix" values="0 0 0 0 0 0 0 0 0 0 0 0 0 0 0 0 0 0 127 0" result="hardAlpha"/>
<feOffset dy="4"/>
<feGaussianBlur stdDeviation="2"/>
<feComposite in2="hardAlpha" operator="out"/>
<feColorMatrix type="matrix" values="0 0 0 0 0 0 0 0 0 0 0 0 0 0 0 0 0 0 0.25 0"/>
<feBlend mode="normal" in2="BackgroundImageFix" result="effect1_dropShadow_0_1"/>
<feBlend mode="normal" in="SourceGraphic" in2="effect1_dropShadow_0_1" result="shape"/>
</filter>
<filter id="filter18_d_0_1" x="153" y="340" width="56.1692" height="56.1692" filterUnits="userSpaceOnUse" color-interpolation-filters="sRGB">
<feFlood flood-opacity="0" result="BackgroundImageFix"/>
<feColorMatrix in="SourceAlpha" type="matrix" values="0 0 0 0 0 0 0 0 0 0 0 0 0 0 0 0 0 0 127 0" result="hardAlpha"/>
<feOffset dy="4"/>
<feGaussianBlur stdDeviation="2"/>
<feComposite in2="hardAlpha" operator="out"/>
<feColorMatrix type="matrix" values="0 0 0 0 0 0 0 0 0 0 0 0 0 0 0 0 0 0 0.25 0"/>
<feBlend mode="normal" in2="BackgroundImageFix" result="effect1_dropShadow_0_1"/>
<feBlend mode="normal" in="SourceGraphic" in2="effect1_dropShadow_0_1" result="shape"/>
</filter>
<filter id="filter19_d_0_1" x="248" y="340" width="56.1692" height="56.1692" filterUnits="userSpaceOnUse" color-interpolation-filters="sRGB">
<feFlood flood-opacity="0" result="BackgroundImageFix"/>
<feColorMatrix in="SourceAlpha" type="matrix" values="0 0 0 0 0 0 0 0 0 0 0 0 0 0 0 0 0 0 127 0" result="hardAlpha"/>
<feOffset dy="4"/>
<feGaussianBlur stdDeviation="2"/>
<feComposite in2="hardAlpha" operator="out"/>
<feColorMatrix type="matrix" values="0 0 0 0 0 0 0 0 0 0 0 0 0 0 0 0 0 0 0.25 0"/>
<feBlend mode="normal" in2="BackgroundImageFix" result="effect1_dropShadow_0_1"/>
<feBlend mode="normal" in="SourceGraphic" in2="effect1_dropShadow_0_1" result="shape"/>
</filter>
<filter id="filter20_d_0_1" x="358.615" y="392.831" width="56.1692" height="56.1692" filterUnits="userSpaceOnUse" color-interpolation-filters="sRGB">
<feFlood flood-opacity="0" result="BackgroundImageFix"/>
<feColorMatrix in="SourceAlpha" type="matrix" values="0 0 0 0 0 0 0 0 0 0 0 0 0 0 0 0 0 0 127 0" result="hardAlpha"/>
<feOffset dy="4"/>
<feGaussianBlur stdDeviation="2"/>
<feComposite in2="hardAlpha" operator="out"/>
<feColorMatrix type="matrix" values="0 0 0 0 0 0 0 0 0 0 0 0 0 0 0 0 0 0 0.25 0"/>
<feBlend mode="normal" in2="BackgroundImageFix" result="effect1_dropShadow_0_1"/>
<feBlend mode="normal" in="SourceGraphic" in2="effect1_dropShadow_0_1" result="shape"/>
</filter>
<filter id="filter21_d_0_1" x="406" y="340" width="56.1692" height="56.1692" filterUnits="userSpaceOnUse" color-interpolation-filters="sRGB">
<feFlood flood-opacity="0" result="BackgroundImageFix"/>
<feColorMatrix in="SourceAlpha" type="matrix" values="0 0 0 0 0 0 0 0 0 0 0 0 0 0 0 0 0 0 127 0" result="hardAlpha"/>
<feOffset dy="4"/>
<feGaussianBlur stdDeviation="2"/>
<feComposite in2="hardAlpha" operator="out"/>
<feColorMatrix type="matrix" values="0 0 0 0 0 0 0 0 0 0 0 0 0 0 0 0 0 0 0.25 0"/>
<feBlend mode="normal" in2="BackgroundImageFix" result="effect1_dropShadow_0_1"/>
<feBlend mode="normal" in="SourceGraphic" in2="effect1_dropShadow_0_1" result="shape"/>
</filter>
<filter id="filter22_d_0_1" x="311" y="340" width="56.1692" height="56.1692" filterUnits="userSpaceOnUse" color-interpolation-filters="sRGB">
<feFlood flood-opacity="0" result="BackgroundImageFix"/>
<feColorMatrix in="SourceAlpha" type="matrix" values="0 0 0 0 0 0 0 0 0 0 0 0 0 0 0 0 0 0 127 0" result="hardAlpha"/>
<feOffset dy="4"/>
<feGaussianBlur stdDeviation="2"/>
<feComposite in2="hardAlpha" operator="out"/>
<feColorMatrix type="matrix" values="0 0 0 0 0 0 0 0 0 0 0 0 0 0 0 0 0 0 0.25 0"/>
<feBlend mode="normal" in2="BackgroundImageFix" result="effect1_dropShadow_0_1"/>
<feBlend mode="normal" in="SourceGraphic" in2="effect1_dropShadow_0_1" result="shape"/>
</filter>
<filter id="filter23_d_0_1" x="359" y="340" width="56.1692" height="56.1692" filterUnits="userSpaceOnUse" color-interpolation-filters="sRGB">
<feFlood flood-opacity="0" result="BackgroundImageFix"/>
<feColorMatrix in="SourceAlpha" type="matrix" values="0 0 0 0 0 0 0 0 0 0 0 0 0 0 0 0 0 0 127 0" result="hardAlpha"/>
<feOffset dy="4"/>
<feGaussianBlur stdDeviation="2"/>
<feComposite in2="hardAlpha" operator="out"/>
<feColorMatrix type="matrix" values="0 0 0 0 0 0 0 0 0 0 0 0 0 0 0 0 0 0 0.25 0"/>
<feBlend mode="normal" in2="BackgroundImageFix" result="effect1_dropShadow_0_1"/>
<feBlend mode="normal" in="SourceGraphic" in2="effect1_dropShadow_0_1" result="shape"/>
</filter>
<filter id="filter24_d_0_1" x="510.615" y="52.8308" width="56.1692" height="56.1692" filterUnits="userSpaceOnUse" color-interpolation-filters="sRGB">
<feFlood flood-opacity="0" result="BackgroundImageFix"/>
<feColorMatrix in="SourceAlpha" type="matrix" values="0 0 0 0 0 0 0 0 0 0 0 0 0 0 0 0 0 0 127 0" result="hardAlpha"/>
<feOffset dy="4"/>
<feGaussianBlur stdDeviation="2"/>
<feComposite in2="hardAlpha" operator="out"/>
<feColorMatrix type="matrix" values="0 0 0 0 0 0 0 0 0 0 0 0 0 0 0 0 0 0 0.25 0"/>
<feBlend mode="normal" in2="BackgroundImageFix" result="effect1_dropShadow_0_1"/>
<feBlend mode="normal" in="SourceGraphic" in2="effect1_dropShadow_0_1" result="shape"/>
</filter>
<filter id="filter25_d_0_1" x="464" y="0" width="56.1692" height="56.1692" filterUnits="userSpaceOnUse" color-interpolation-filters="sRGB">
<feFlood flood-opacity="0" result="BackgroundImageFix"/>
<feColorMatrix in="SourceAlpha" type="matrix" values="0 0 0 0 0 0 0 0 0 0 0 0 0 0 0 0 0 0 127 0" result="hardAlpha"/>
<feOffset dy="4"/>
<feGaussianBlur stdDeviation="2"/>
<feComposite in2="hardAlpha" operator="out"/>
<feColorMatrix type="matrix" values="0 0 0 0 0 0 0 0 0 0 0 0 0 0 0 0 0 0 0.25 0"/>
<feBlend mode="normal" in2="BackgroundImageFix" result="effect1_dropShadow_0_1"/>
<feBlend mode="normal" in="SourceGraphic" in2="effect1_dropShadow_0_1" result="shape"/>
</filter>
<filter id="filter26_d_0_1" x="512.169" y="0" width="56.1692" height="56.1692" filterUnits="userSpaceOnUse" color-interpolation-filters="sRGB">
<feFlood flood-opacity="0" result="BackgroundImageFix"/>
<feColorMatrix in="SourceAlpha" type="matrix" values="0 0 0 0 0 0 0 0 0 0 0 0 0 0 0 0 0 0 127 0" result="hardAlpha"/>
<feOffset dy="4"/>
<feGaussianBlur stdDeviation="2"/>
<feComposite in2="hardAlpha" operator="out"/>
<feColorMatrix type="matrix" values="0 0 0 0 0 0 0 0 0 0 0 0 0 0 0 0 0 0 0.25 0"/>
<feBlend mode="normal" in2="BackgroundImageFix" result="effect1_dropShadow_0_1"/>
<feBlend mode="normal" in="SourceGraphic" in2="effect1_dropShadow_0_1" result="shape"/>
</filter>
<filter id="filter27_d_0_1" x="560" y="0" width="56.1692" height="56.1692" filterUnits="userSpaceOnUse" color-interpolation-filters="sRGB">
<feFlood flood-opacity="0" result="BackgroundImageFix"/>
<feColorMatrix in="SourceAlpha" type="matrix" values="0 0 0 0 0 0 0 0 0 0 0 0 0 0 0 0 0 0 127 0" result="hardAlpha"/>
<feOffset dy="4"/>
<feGaussianBlur stdDeviation="2"/>
<feComposite in2="hardAlpha" operator="out"/>
<feColorMatrix type="matrix" values="0 0 0 0 0 0 0 0 0 0 0 0 0 0 0 0 0 0 0.25 0"/>
<feBlend mode="normal" in2="BackgroundImageFix" result="effect1_dropShadow_0_1"/>
<feBlend mode="normal" in="SourceGraphic" in2="effect1_dropShadow_0_1" result="shape"/>
</filter>
<filter id="filter28_d_0_1" x="203" y="0" width="56.1692" height="56.1692" filterUnits="userSpaceOnUse" color-interpolation-filters="sRGB">
<feFlood flood-opacity="0" result="BackgroundImageFix"/>
<feColorMatrix in="SourceAlpha" type="matrix" values="0 0 0 0 0 0 0 0 0 0 0 0 0 0 0 0 0 0 127 0" result="hardAlpha"/>
<feOffset dy="4"/>
<feGaussianBlur stdDeviation="2"/>
<feComposite in2="hardAlpha" operator="out"/>
<feColorMatrix type="matrix" values="0 0 0 0 0 0 0 0 0 0 0 0 0 0 0 0 0 0 0.25 0"/>
<feBlend mode="normal" in2="BackgroundImageFix" result="effect1_dropShadow_0_1"/>
<feBlend mode="normal" in="SourceGraphic" in2="effect1_dropShadow_0_1" result="shape"/>
</filter>
<filter id="filter29_d_0_1" x="154" y="0" width="56.1692" height="56.1692" filterUnits="userSpaceOnUse" color-interpolation-filters="sRGB">
<feFlood flood-opacity="0" result="BackgroundImageFix"/>
<feColorMatrix in="SourceAlpha" type="matrix" values="0 0 0 0 0 0 0 0 0 0 0 0 0 0 0 0 0 0 127 0" result="hardAlpha"/>
<feOffset dy="4"/>
<feGaussianBlur stdDeviation="2"/>
<feComposite in2="hardAlpha" operator="out"/>
<feColorMatrix type="matrix" values="0 0 0 0 0 0 0 0 0 0 0 0 0 0 0 0 0 0 0.25 0"/>
<feBlend mode="normal" in2="BackgroundImageFix" result="effect1_dropShadow_0_1"/>
<feBlend mode="normal" in="SourceGraphic" in2="effect1_dropShadow_0_1" result="shape"/>
</filter>
<filter id="filter30_d_0_1" x="252" y="0" width="56.1692" height="56.1692" filterUnits="userSpaceOnUse" color-interpolation-filters="sRGB">
<feFlood flood-opacity="0" result="BackgroundImageFix"/>
<feColorMatrix in="SourceAlpha" type="matrix" values="0 0 0 0 0 0 0 0 0 0 0 0 0 0 0 0 0 0 127 0" result="hardAlpha"/>
<feOffset dy="4"/>
<feGaussianBlur stdDeviation="2"/>
<feComposite in2="hardAlpha" operator="out"/>
<feColorMatrix type="matrix" values="0 0 0 0 0 0 0 0 0 0 0 0 0 0 0 0 0 0 0.25 0"/>
<feBlend mode="normal" in2="BackgroundImageFix" result="effect1_dropShadow_0_1"/>
<feBlend mode="normal" in="SourceGraphic" in2="effect1_dropShadow_0_1" result="shape"/>
</filter>
<filter id="filter31_d_0_1" x="203" y="53" width="56.1692" height="56.1692" filterUnits="userSpaceOnUse" color-interpolation-filters="sRGB">
<feFlood flood-opacity="0" result="BackgroundImageFix"/>
<feColorMatrix in="SourceAlpha" type="matrix" values="0 0 0 0 0 0 0 0 0 0 0 0 0 0 0 0 0 0 127 0" result="hardAlpha"/>
<feOffset dy="4"/>
<feGaussianBlur stdDeviation="2"/>
<feComposite in2="hardAlpha" operator="out"/>
<feColorMatrix type="matrix" values="0 0 0 0 0 0 0 0 0 0 0 0 0 0 0 0 0 0 0.25 0"/>
<feBlend mode="normal" in2="BackgroundImageFix" result="effect1_dropShadow_0_1"/>
<feBlend mode="normal" in="SourceGraphic" in2="effect1_dropShadow_0_1" result="shape"/>
</filter>
<filter id="filter32_d_0_1" x="176.15" y="204.44" width="265.245" height="41.088" filterUnits="userSpaceOnUse" color-interpolation-filters="sRGB">
<feFlood flood-opacity="0" result="BackgroundImageFix"/>
<feColorMatrix in="SourceAlpha" type="matrix" values="0 0 0 0 0 0 0 0 0 0 0 0 0 0 0 0 0 0 127 0" result="hardAlpha"/>
<feOffset dy="4"/>
<feGaussianBlur stdDeviation="2"/>
<feComposite in2="hardAlpha" operator="out"/>
<feColorMatrix type="matrix" values="0 0 0 0 0 0 0 0 0 0 0 0 0 0 0 0 0 0 0.25 0"/>
<feBlend mode="normal" in2="BackgroundImageFix" result="effect1_dropShadow_0_1"/>
<feBlend mode="normal" in="SourceGraphic" in2="effect1_dropShadow_0_1" result="shape"/>
</filter>
</defs>
</svg>
