<svg width="100%" height="77" viewBox="0 0 1143 77" fill="none" xmlns="http://www.w3.org/2000/svg">
            <rect x="0.5" y="0.5" width="76" height="76" fill="#88C0D0" stroke="#7390AA"/>
            <path d="M50.1406 55V51.788H42.0446V24.288H36.2806L28.1406 31.9L30.2966 34.232L38.0406 27.016H38.3486V51.788H29.5486V55H50.1406Z" fill="#2E3440"/>
            <rect x="77.5" y="0.5" width="76" height="76" fill="#88C0D0" stroke="#7390AA"/>
            <path d="M127.141 55V51.788H119.045V24.288H113.281L105.141 31.9L107.297 34.232L115.041 27.016H115.349V51.788H106.549V55H127.141Z" fill="#2E3440"/>
            <rect x="381.5" y="0.5" width="76" height="76" fill="#88C0D0" stroke="#7390AA"/>
            <path d="M431.141 55V51.788H423.045V24.288H417.281L409.141 31.9L411.297 34.232L419.041 27.016H419.349V51.788H410.549V55H431.141Z" fill="#2E3440"/>
            <rect x="914.5" y="0.5" width="76" height="76" fill="#88C0D0" stroke="#7390AA"/>
            <path d="M964.141 55V51.788H956.045V24.288H950.281L942.141 31.9L944.297 34.232L952.041 27.016H952.349V51.788H943.549V55H964.141Z" fill="#2E3440"/>
            <rect x="154.5" y="0.5" width="76" height="76" stroke="#7390AA"/>
            <path d="M193.009 55.528C200.489 55.528 203.745 49.676 203.745 39.644C203.745 29.612 200.489 23.76 193.009 23.76C185.529 23.76 182.273 29.612 182.273 39.644C182.273 49.676 185.529 55.528 193.009 55.528ZM193.009 52.316C188.081 52.316 186.101 48.312 186.101 42.152V37.136C186.101 30.976 188.081 26.972 193.009 26.972C197.937 26.972 199.917 30.976 199.917 37.136V42.152C199.917 48.312 197.937 52.316 193.009 52.316ZM193.009 42.24C195.033 42.24 195.737 41.316 195.737 40.128V39.16C195.737 37.972 195.033 37.048 193.009 37.048C190.985 37.048 190.281 37.972 190.281 39.16V40.128C190.281 41.316 190.985 42.24 193.009 42.24Z" fill="#88C0D0"/>
            <rect x="304.5" y="0.5" width="76" height="76" stroke="#7390AA"/>
            <path d="M343.009 55.528C350.489 55.528 353.745 49.676 353.745 39.644C353.745 29.612 350.489 23.76 343.009 23.76C335.529 23.76 332.273 29.612 332.273 39.644C332.273 49.676 335.529 55.528 343.009 55.528ZM343.009 52.316C338.081 52.316 336.101 48.312 336.101 42.152V37.136C336.101 30.976 338.081 26.972 343.009 26.972C347.937 26.972 349.917 30.976 349.917 37.136V42.152C349.917 48.312 347.937 52.316 343.009 52.316ZM343.009 42.24C345.033 42.24 345.737 41.316 345.737 40.128V39.16C345.737 37.972 345.033 37.048 343.009 37.048C340.985 37.048 340.281 37.972 340.281 39.16V40.128C340.281 41.316 340.985 42.24 343.009 42.24Z" fill="#88C0D0"/>
            <rect x="458.5" y="0.5" width="76" height="76" stroke="#7390AA"/>
            <path d="M497.009 55.528C504.489 55.528 507.745 49.676 507.745 39.644C507.745 29.612 504.489 23.76 497.009 23.76C489.529 23.76 486.273 29.612 486.273 39.644C486.273 49.676 489.529 55.528 497.009 55.528ZM497.009 52.316C492.081 52.316 490.101 48.312 490.101 42.152V37.136C490.101 30.976 492.081 26.972 497.009 26.972C501.937 26.972 503.917 30.976 503.917 37.136V42.152C503.917 48.312 501.937 52.316 497.009 52.316ZM497.009 42.24C499.033 42.24 499.737 41.316 499.737 40.128V39.16C499.737 37.972 499.033 37.048 497.009 37.048C494.985 37.048 494.281 37.972 494.281 39.16V40.128C494.281 41.316 494.985 42.24 497.009 42.24Z" fill="#88C0D0"/>
            <rect x="608.5" y="0.5" width="76" height="76" stroke="#7390AA"/>
            <path d="M647.009 55.528C654.489 55.528 657.745 49.676 657.745 39.644C657.745 29.612 654.489 23.76 647.009 23.76C639.529 23.76 636.273 29.612 636.273 39.644C636.273 49.676 639.529 55.528 647.009 55.528ZM647.009 52.316C642.081 52.316 640.101 48.312 640.101 42.152V37.136C640.101 30.976 642.081 26.972 647.009 26.972C651.937 26.972 653.917 30.976 653.917 37.136V42.152C653.917 48.312 651.937 52.316 647.009 52.316ZM647.009 42.24C649.033 42.24 649.737 41.316 649.737 40.128V39.16C649.737 37.972 649.033 37.048 647.009 37.048C644.985 37.048 644.281 37.972 644.281 39.16V40.128C644.281 41.316 644.985 42.24 647.009 42.24Z" fill="#88C0D0"/>
            <rect x="685.5" y="0.5" width="76" height="76" stroke="#7390AA"/>
            <path d="M724.009 55.528C731.489 55.528 734.745 49.676 734.745 39.644C734.745 29.612 731.489 23.76 724.009 23.76C716.529 23.76 713.273 29.612 713.273 39.644C713.273 49.676 716.529 55.528 724.009 55.528ZM724.009 52.316C719.081 52.316 717.101 48.312 717.101 42.152V37.136C717.101 30.976 719.081 26.972 724.009 26.972C728.937 26.972 730.917 30.976 730.917 37.136V42.152C730.917 48.312 728.937 52.316 724.009 52.316ZM724.009 42.24C726.033 42.24 726.737 41.316 726.737 40.128V39.16C726.737 37.972 726.033 37.048 724.009 37.048C721.985 37.048 721.281 37.972 721.281 39.16V40.128C721.281 41.316 721.985 42.24 724.009 42.24Z" fill="#88C0D0"/>
            <rect x="762.5" y="0.5" width="76" height="76" stroke="#7390AA"/>
            <path d="M801.009 55.528C808.489 55.528 811.745 49.676 811.745 39.644C811.745 29.612 808.489 23.76 801.009 23.76C793.529 23.76 790.273 29.612 790.273 39.644C790.273 49.676 793.529 55.528 801.009 55.528ZM801.009 52.316C796.081 52.316 794.101 48.312 794.101 42.152V37.136C794.101 30.976 796.081 26.972 801.009 26.972C805.937 26.972 807.917 30.976 807.917 37.136V42.152C807.917 48.312 805.937 52.316 801.009 52.316ZM801.009 42.24C803.033 42.24 803.737 41.316 803.737 40.128V39.16C803.737 37.972 803.033 37.048 801.009 37.048C798.985 37.048 798.281 37.972 798.281 39.16V40.128C798.281 41.316 798.985 42.24 801.009 42.24Z" fill="#88C0D0"/>
            <rect x="989.5" y="0.5" width="76" height="76" stroke="#7390AA"/>
            <path d="M1028.01 55.528C1035.49 55.528 1038.74 49.676 1038.74 39.644C1038.74 29.612 1035.49 23.76 1028.01 23.76C1020.53 23.76 1017.27 29.612 1017.27 39.644C1017.27 49.676 1020.53 55.528 1028.01 55.528ZM1028.01 52.316C1023.08 52.316 1021.1 48.312 1021.1 42.152V37.136C1021.1 30.976 1023.08 26.972 1028.01 26.972C1032.94 26.972 1034.92 30.976 1034.92 37.136V42.152C1034.92 48.312 1032.94 52.316 1028.01 52.316ZM1028.01 42.24C1030.03 42.24 1030.74 41.316 1030.74 40.128V39.16C1030.74 37.972 1030.03 37.048 1028.01 37.048C1025.98 37.048 1025.28 37.972 1025.28 39.16V40.128C1025.28 41.316 1025.98 42.24 1028.01 42.24Z" fill="#88C0D0"/>
            <rect x="1066.5" y="0.5" width="76" height="76" stroke="#7390AA"/>
            <path d="M1105.01 55.528C1112.49 55.528 1115.74 49.676 1115.74 39.644C1115.74 29.612 1112.49 23.76 1105.01 23.76C1097.53 23.76 1094.27 29.612 1094.27 39.644C1094.27 49.676 1097.53 55.528 1105.01 55.528ZM1105.01 52.316C1100.08 52.316 1098.1 48.312 1098.1 42.152V37.136C1098.1 30.976 1100.08 26.972 1105.01 26.972C1109.94 26.972 1111.92 30.976 1111.92 37.136V42.152C1111.92 48.312 1109.94 52.316 1105.01 52.316ZM1105.01 42.24C1107.03 42.24 1107.74 41.316 1107.74 40.128V39.16C1107.74 37.972 1107.03 37.048 1105.01 37.048C1102.98 37.048 1102.28 37.972 1102.28 39.16V40.128C1102.28 41.316 1102.98 42.24 1105.01 42.24Z" fill="#88C0D0"/>
          </svg>